<svg xmlns="http://www.w3.org/2000/svg" width="31.624" height="31.625" viewBox="0 0 31.624 31.625"><path d="M26.6,65.921a2.451,2.451,0,0,0-3.705,0c-.866.859-1.733,1.718-2.584,2.592a.511.511,0,0,1-.713.131c-.561-.306-1.157-.553-1.7-.888a26.875,26.875,0,0,1-6.479-5.9A15.349,15.349,0,0,1,9.1,58.139a.533.533,0,0,1,.131-.684c.866-.837,1.711-1.7,2.562-2.555a2.461,2.461,0,0,0-.007-3.793c-.677-.684-1.354-1.354-2.031-2.038-.7-.7-1.39-1.4-2.1-2.1a2.467,2.467,0,0,0-3.705.007c-.874.859-1.711,1.74-2.6,2.584A4.219,4.219,0,0,0,.031,52.41,12.06,12.06,0,0,0,.963,57.6a31.54,31.54,0,0,0,5.6,9.325A34.643,34.643,0,0,0,18.034,75.9a16.592,16.592,0,0,0,6.355,1.849,4.657,4.657,0,0,0,4-1.521c.743-.83,1.58-1.587,2.366-2.38a2.477,2.477,0,0,0,.015-3.771Q28.691,67.992,26.6,65.921Z" transform="translate(-0.006 -46.138)" fill="#fff"/></svg>