<svg xmlns="http://www.w3.org/2000/svg" width="35.113" height="29.582" viewBox="0 0 35.113 29.582"><path d="M79.872,99.62,47.759,112.134a1.171,1.171,0,0,0,.094,2.214l8.16,2.41,3.045,9.663a1.4,1.4,0,0,0,2.338.559l4.219-4.308,8.278,6.076a1.727,1.727,0,0,0,2.713-1.039L82.089,101.5A1.652,1.652,0,0,0,79.872,99.62Zm-4.026,5.817L60.929,118.627a.8.8,0,0,0-.265.511l-.574,5.105a.155.155,0,0,1-.3.029l-2.363-7.614a.8.8,0,0,1,.343-.919l17.615-10.925A.389.389,0,0,1,75.846,105.437Z" transform="translate(-47.013 -99.504)" fill="#fff"/></svg>