<svg xmlns="http://www.w3.org/2000/svg" width="34.954" height="26.625" viewBox="0 0 34.954 26.625"><path d="M31.882,61H3.072A3.077,3.077,0,0,0,0,64.072V84.553a3.077,3.077,0,0,0,3.072,3.072h28.81a3.077,3.077,0,0,0,3.072-3.072V64.072A3.077,3.077,0,0,0,31.882,61Zm-.424,2.048L17.542,76.964,3.506,63.048ZM2.048,84.129V64.486l9.863,9.779ZM3.5,85.577l9.87-9.87,3.458,3.429a1.024,1.024,0,0,0,1.445,0l3.372-3.372,9.816,9.816Zm29.41-1.448L23.09,74.313,32.906,64.5Z" transform="translate(0 -61)" fill="#fff"/></svg>