<svg xmlns="http://www.w3.org/2000/svg" width="32" height="32" viewBox="0 0 32 32"><g transform="translate(-1497.799 -363.038)"><g transform="translate(1506.799 372.176)"><path d="M9.625,0H4.375A4.375,4.375,0,0,0,0,4.375v5.25A4.375,4.375,0,0,0,4.375,14h5.25A4.375,4.375,0,0,0,14,9.625V4.375A4.375,4.375,0,0,0,9.625,0Zm3.063,9.625a3.066,3.066,0,0,1-3.062,3.063H4.375A3.066,3.066,0,0,1,1.312,9.625V4.375A3.066,3.066,0,0,1,4.375,1.312h5.25a3.066,3.066,0,0,1,3.063,3.063Z" fill="#fff"/><g transform="translate(3.784 3.784)"><path d="M131.216,128a3.216,3.216,0,1,0,3.216,3.216A3.216,3.216,0,0,0,131.216,128Zm0,5.225a2.01,2.01,0,1,1,2.01-2.01A2.013,2.013,0,0,1,131.216,133.225Z" transform="translate(-128 -128)" fill="#fff"/></g><g transform="translate(10.356 2.787)"><circle cx="0.428" cy="0.428" r="0.428" fill="#fff"/></g></g><path d="M16,0A16,16,0,1,0,32,16,16,16,0,0,0,16,0Zm0,29.5A13.5,13.5,0,1,1,29.5,16,13.5,13.5,0,0,1,16,29.5Z" transform="translate(1497.799 363.038)" fill="#fff"/></g></svg>